Coordinates
version=1
nRows=9
nColumns=24
inDegrees=yes

Units are S.I. units (second, meters, Newtons, ...)
Angles are in degrees.

endheader
time	pelvis_tilt	pelvis_list	pelvis_rotation	pelvis_tx	pelvis_ty	pelvis_tz	hip_flexion_r	hip_adduction_r	hip_rotation_r	knee_angle_r	ankle_angle_r	subtalar_angle_r	mtp_angle_r	hip_flexion_l	hip_adduction_l	hip_rotation_l	knee_angle_l	ankle_angle_l	subtalar_angle_l	mtp_angle_l	lumbar_extension	lumbar_bending	lumbar_rotation
      3.97000000	     14.60211956	     -4.52096742	      8.06535849	     -0.45208446	      0.92558707	     -0.27547965	    -30.09552237	      9.22599302	     -4.07057938	    -14.78707407	     21.14929381	     10.89993643	      0.00000000	      6.59731645	     -2.25425542	     12.78827086	     -5.10961117	     11.12915309	      1.77525309	      0.00000000	    -32.37485071	      5.26041781	      3.90672980
      3.97500000	     14.49890905	     -4.09707720	      7.97652790	     -0.44488517	      0.92542643	     -0.27616487	    -29.99832306	      8.67293870	     -4.30560271	    -15.83314250	     20.84442721	     11.45386926	      0.00000000	      6.47720065	     -1.72910293	     12.89044593	     -5.46914697	     11.04379297	      1.56763129	      0.00000000	    -32.20782960	      4.79206787	      3.72540371
      3.98000000	     14.43305569	     -3.62333765	      7.94151677	     -0.43770817	      0.92530780	     -0.27692303	    -29.92086017	      8.09890693	     -4.60166820	    -16.91850081	     20.52285625	     12.00924243	      0.00000000	      6.32451682	     -1.14285396	     13.07164437	     -5.90619283	     10.94563817	      1.30093970	      0.00000000	    -32.09213258	      4.29882966	      3.47747460
      3.98500000	     14.34490703	     -3.13443052	      7.87747441	     -0.43043876	      0.92522791	     -0.27767779	    -29.80202340	      7.48773514	     -4.89385146	    -18.04577736	     20.11800134	     12.54313159	      0.00000000	      6.17727026	     -0.53702006	     13.18959798	     -6.37976421	     10.85069568	      1.04042524	      0.00000000	    -31.93568708	      3.77964215	      3.23452033
      3.99000000	     14.25552387	     -2.62384600	      7.82086530	     -0.42315786	      0.92517058	     -0.27845784	    -29.65618059	      6.85355473	     -5.20116605	    -19.22328454	     19.67611862	     13.06673548	      0.00000000	      6.02747920	      0.09635835	     13.31107789	     -6.89535791	     10.74977599	      0.77746740	      0.00000000	    -31.78251819	      3.23861260	      2.97930994
      3.99500000	     14.16738372	     -2.10602139	      7.76461309	     -0.41586314	      0.92514115	     -0.27924423	    -29.48400992	      6.20565006	     -5.52389381	    -20.44791908	     19.18725361	     13.57770008	      0.00000000	      5.87166099	      0.73914120	     13.42764654	     -7.44370985	     10.64815634	      0.51276176	      0.00000000	    -31.62382308	      2.69216429	      2.72023226
      4.00000000	     14.06954285	     -1.57521922	      7.70915158	     -0.40854729	      0.92513108	     -0.28005189	    -29.27464066	      5.53743802	     -5.85237539	    -21.71906902	     18.64900070	     14.06027742	      0.00000000	      5.71583939	      1.39887301	     13.52569814	     -8.00750661	     10.53614651	      0.25507954	      0.00000000	    -31.45711810	      2.13234697	      2.45933439
      4.00500000	     13.95341943	     -1.03634420	      7.63658897	     -0.40118514	      0.92514906	     -0.28080856	    -29.02222268	      4.85260766	     -6.13788999	    -23.02479520	     18.04531897	     14.46776400	      0.00000000	      5.56745390	      2.06247389	     13.57857495	     -8.58118555	     10.40945214	      0.04769740	      0.00000000	    -31.26273845	      1.54586084	      2.20927963
      4.01000000	     13.85537539	     -0.51225586	      7.58548001	     -0.39387088	      0.92517747	     -0.28167958	    -28.74833590	      4.16670517	     -6.51030147	    -24.39172250	     17.41418201	     14.92615711	      0.00000000	      5.39429952	      2.71918449	     13.67145196	     -9.15210502	     10.29984449	     -0.23157643	      0.00000000	    -31.09295671	      1.00172435	      1.95682402
